<svg id="Capa_1" data-name="Capa 1" xmlns="http://www.w3.org/2000/svg" viewBox="0 0 184.91 107.79"><defs><style>.cls-1{fill:#01c4e7;}</style></defs><title>favicon</title><path class="cls-1" d="M71.86,1.05V24.5H29.47V43.14H60.73v22.4H29.47V107H0V1.05Z"/><path class="cls-1" d="M152,35.93a17,17,0,0,0-7-6.46,22.68,22.68,0,0,0-10.45-2.26q-11.11,0-17.51,7.22t-6.39,19.39q0,13.68,6.84,20.82t19.92,7.14q15.48,0,22.1-14H129.88V46.6h55V75.17A54,54,0,0,1,174.76,91a52,52,0,0,1-16.91,12.1,54.84,54.84,0,0,1-23.31,4.74q-15.93,0-28.18-6.84A47.48,47.48,0,0,1,87.42,81.86q-6.7-12.26-6.69-28a57.15,57.15,0,0,1,6.69-27.89A47.66,47.66,0,0,1,106.28,6.84Q118.46,0,134.4,0q20,0,33.07,9.62T183.7,35.93Z"/></svg>